<?xml version="1.0" standalone="no"?>
<!DOCTYPE svg PUBLIC "-//W3C//DTD SVG 1.1//EN" "http://www.w3.org/Graphics/SVG/1.1/DTD/svg11.dtd" >
<svg xmlns="http://www.w3.org/2000/svg" xmlns:xlink="http://www.w3.org/1999/xlink" version="1.1">
<metadata></metadata>
<defs>
<font id="archivo_narrowregular" horiz-adv-x="933" >
<font-face units-per-em="2048" ascent="1638" descent="-410" />
<missing-glyph horiz-adv-x="466" />
<glyph horiz-adv-x="0" />
<glyph unicode="&#xd;" horiz-adv-x="466" />
<glyph horiz-adv-x="0" />
<glyph horiz-adv-x="0" />
<glyph unicode=" "  horiz-adv-x="466" />
<glyph unicode="&#x09;" horiz-adv-x="466" />
<glyph unicode="&#xa0;" horiz-adv-x="466" />
<glyph unicode="!" horiz-adv-x="466" d="M123 1405h231l-53 -1055h-127zM137 0v221h205v-221h-205z" />
<glyph unicode="&#x22;" horiz-adv-x="595" d="M76 1104v301h168v-301l-43 -270h-80zM348 1104v301h168v-301l-45 -270h-80z" />
<glyph unicode="#" d="M18 367v155h166l70 318h-156v155h191l96 430h156l-97 -430h185l96 430h156l-97 -430h123v-155h-157l-70 -318h145v-155h-180l-82 -367h-155l81 367h-184l-82 -367h-155l82 367h-132zM340 522h184l70 318h-184z" />
<glyph unicode="$" d="M109 455q0 25 1 34t1 11h168v-21q0 -82 35.5 -130t99.5 -62v366q-88 31 -145.5 63t-96.5 90t-39 152q0 127 75 207t206 97v219h100v-217q133 -10 209 -93.5t76 -199.5l-2 -39h-166v18q0 61 -28 107.5t-89 60.5v-323q94 -31 156.5 -64t105.5 -95.5t43 -164.5 q0 -154 -82 -235.5t-223 -94.5v-241h-100v241q-154 12 -229.5 101.5t-75.5 212.5zM301 971q0 -49 28.5 -81t84.5 -56v284q-61 -12 -87 -54t-26 -93zM514 285q61 10 99 51t38 110q0 63 -35.5 102.5t-101.5 67.5v-331z" />
<glyph unicode="%" horiz-adv-x="1492" d="M92 1059q0 205 65.5 288t196.5 83t196.5 -83t65.5 -288q0 -203 -65.5 -286t-196.5 -83t-196.5 83t-65.5 286zM233 1044q0 -115 26 -174t95 -59q70 0 95.5 59.5t25.5 173.5v31q0 115 -25.5 174.5t-95.5 59.5t-95.5 -59.5t-25.5 -174.5v-31zM256 0l856 1405h145l-858 -1405 h-143zM895 344q0 205 65.5 288t196.5 83t196.5 -83t65.5 -288q0 -203 -65.5 -286t-196.5 -83t-196.5 83t-65.5 286zM1036 330q0 -115 25.5 -174.5t95.5 -59.5t95.5 59.5t25.5 174.5v30q0 115 -25.5 174.5t-95.5 59.5t-95.5 -59.5t-25.5 -174.5v-30z" />
<glyph unicode="&#x26;" horiz-adv-x="1120" d="M72 377q0 133 56 221t151 123v8q-86 49 -134.5 124t-48.5 191q0 184 116 285t312 101q125 0 221.5 -48.5t150.5 -135.5t54 -202v-36h-168v18q0 125 -70.5 187.5t-189.5 62.5q-109 0 -177.5 -59.5t-68.5 -182.5q0 -119 61.5 -182.5t154.5 -63.5h104v-149h-100 q-244 0 -244 -250q0 -133 71.5 -196.5t196.5 -63.5q262 0 262 262v397h312v-151h-144v-240q0 -197 -113.5 -309.5t-328.5 -112.5q-195 0 -315.5 109t-120.5 293z" />
<glyph unicode="'" horiz-adv-x="321" d="M72 1104v301h168v-301l-43 -270h-80z" />
<glyph unicode="(" horiz-adv-x="559" d="M82 590q0 252 87 489.5t249 425.5h110q-121 -197 -196.5 -439.5t-75.5 -471.5t76 -474t196 -442h-110q-162 191 -249 425.5t-87 486.5z" />
<glyph unicode=")" horiz-adv-x="559" d="M31 -322q121 197 196.5 442t75.5 474t-75.5 472t-196.5 439h110q162 -188 249 -425.5t87 -489.5t-87 -486.5t-249 -425.5h-110z" />
<glyph unicode="*" horiz-adv-x="653" d="M53 1055l168 78l-168 77l70 119l151 -106l-18 182h139l-18 -180l151 104l70 -119l-168 -77l168 -78l-70 -121l-151 106l18 -182h-139l18 182l-151 -106z" />
<glyph unicode="+" horiz-adv-x="980" d="M88 436v172h315v439h170v-439h318v-172h-318v-436h-170v436h-315z" />
<glyph unicode="," horiz-adv-x="466" d="M131 0v221h205v-203l-98 -272h-107l82 254h-82z" />
<glyph unicode="-" horiz-adv-x="559" d="M20 453v200h517v-200h-517z" />
<glyph unicode="." horiz-adv-x="466" d="M131 0v221h205v-221h-205z" />
<glyph unicode="/" horiz-adv-x="466" d="M2 -100l322 1605h143l-320 -1605h-145z" />
<glyph unicode="0" d="M82 702q0 279 45 438.5t129 224.5t211 65t211 -66t129 -224.5t45 -437.5t-45 -437.5t-129 -224t-211 -65.5t-211 64.5t-129 224.5t-45 438zM254 631q0 -242 47 -374t166 -132t166 132t47 374v143q0 242 -47 374t-166 132t-166 -132t-47 -374v-143z" />
<glyph unicode="1" d="M100 1149v106q90 10 217 52.5t222 97.5h65v-1255h307v-150h-809v150h334v999h-336z" />
<glyph unicode="2" d="M80 0v27q0 162 98 305q35 53 79 103t114 124q96 104 153.5 176t96 157t38.5 175q0 84 -44 145.5t-146 61.5t-149.5 -75t-47.5 -193v-84h-174q-2 6 -4 28.5t-2 53.5q0 213 107.5 319.5t271.5 106.5t265.5 -90.5t101.5 -274.5q0 -113 -46.5 -215t-111 -184t-170.5 -197 q-14 -16 -78.5 -88t-107.5 -137q-25 -35 -37 -72h557v-172h-764z" />
<glyph unicode="3" d="M72 397v17h172v-23q0 -131 54 -198.5t157 -67.5q104 0 164.5 65.5t60.5 198.5q0 250 -231 250h-117v149h121q86 0 144 63.5t58 182.5q0 123 -54 184.5t-138 61.5q-88 0 -141.5 -64.5t-53.5 -189.5v-18h-172v36q0 115 46 202t129 135.5t190 48.5q168 0 267 -100.5 t99 -285.5q0 -117 -48 -191.5t-134 -123.5v-8q94 -35 150.5 -123t56.5 -221q0 -184 -106.5 -293t-278.5 -109q-188 0 -291.5 114t-103.5 308z" />
<glyph unicode="4" d="M41 346v152q111 203 207 447.5t158 484.5h169q-35 -174 -107.5 -367t-148 -347.5t-120.5 -219.5h385v442q29 68 45 126t41 157h82v-725h143v-150h-143v-346h-168v346h-543z" />
<glyph unicode="5" d="M82 436h174q0 -141 62.5 -227t156.5 -86q98 0 157.5 86t59.5 250q0 143 -55 223t-148 80q-66 0 -122 -44t-86 -118l-160 27l47 778h639v-172h-494l-26 -428q109 109 248 108q145 0 238 -116.5t93 -337.5q0 -229 -104.5 -356.5t-286.5 -127.5q-180 0 -286.5 124 t-106.5 337z" />
<glyph unicode="6" d="M82 662q0 287 46 455.5t132 240.5t215 72q172 0 256 -125t84 -332h-170q0 147 -45 227t-133 80q-121 0 -166 -132t-47 -398q45 63 108.5 98t139.5 35q170 0 260 -127t90 -326q0 -137 -47 -240.5t-131 -159t-189 -55.5q-200 0 -301.5 157t-101.5 530zM268 430 q0 -133 53.5 -219t153.5 -86t152.5 86t52.5 219t-52.5 219t-152.5 86t-153.5 -86t-53.5 -219z" />
<glyph unicode="7" d="M68 1233v172h798v-109q-182 -276 -308 -581t-126 -611q0 -55 2 -104h-190q0 326 119.5 641t291.5 592h-587z" />
<glyph unicode="8" d="M82 385q0 246 180 336q-74 49 -112.5 132t-38.5 185q0 170 93 281t263 111t263 -111t93 -281q0 -102 -39 -185t-114 -132q182 -90 182 -336q0 -182 -95 -296t-290 -114t-290 114t-95 296zM254 385q0 -121 55.5 -190.5t157.5 -69.5t157.5 69.5t55.5 190.5t-55.5 189.5 t-157.5 68.5t-157.5 -68.5t-55.5 -189.5zM279 1036q0 -113 51 -178t137 -65t138 65.5t52 177.5q0 113 -52 178.5t-138 65.5t-137 -65.5t-51 -178.5z" />
<glyph unicode="9" d="M82 975q0 137 47 240.5t131 159t189 55.5q201 0 302 -157t101 -530q0 -285 -45 -454.5t-129 -241.5t-211 -72q-176 0 -262 125t-86 332h170q0 -147 47 -227t139 -80q115 0 158 131t47 397q-98 -131 -248 -131q-170 0 -260 127t-90 326zM254 975q0 -133 52 -219t153 -86 q100 0 153.5 86t53.5 219t-53.5 219t-153.5 86t-152.5 -86t-52.5 -219z" />
<glyph unicode=":" horiz-adv-x="466" d="M131 0v221h205v-221h-205zM131 856v221h205v-221h-205z" />
<glyph unicode=";" horiz-adv-x="466" d="M131 0v221h205v-203l-98 -272h-107l82 254h-82zM131 856v221h205v-221h-205z" />
<glyph unicode="&#x3c;" horiz-adv-x="980" d="M90 410v219l803 403v-184l-637 -328l637 -327v-185z" />
<glyph unicode="=" horiz-adv-x="980" d="M88 217v170h803v-170h-803zM88 651v172h803v-172h-803z" />
<glyph unicode="&#x3e;" horiz-adv-x="980" d="M90 8v185l637 327l-637 328v184l803 -403v-219z" />
<glyph unicode="?" d="M88 1012q0 182 102.5 300t292.5 118q100 0 181 -46.5t127.5 -129.5t46.5 -189q0 -102 -22.5 -175t-54.5 -117t-81 -97q-55 -59 -82 -105.5t-27 -117.5v-84h-178v114q0 92 33 151.5t98 131.5q63 72 95 130t32 146q0 78 -38 154t-144 76q-115 0 -155 -86t-40 -191 q0 -23 1 -37t1 -18h-182q-2 8 -4 28.5t-2 43.5zM379 0v221h205v-221h-205z" />
<glyph unicode="@" horiz-adv-x="1703" d="M92 537q0 313 104.5 512.5t279.5 290t398 90.5q336 0 536 -189.5t200 -583.5q0 -217 -59.5 -354t-148.5 -197.5t-179 -60.5q-82 0 -125 33t-58 94h-8q-39 -61 -101.5 -95t-137.5 -34q-98 0 -177 59.5t-79 214.5q0 188 128 258t367 70v127q0 78 -33.5 119t-121.5 41 q-80 0 -115 -45t-35 -111v-22h-152q-2 12 -2 41q0 131 86 201.5t230 70.5q145 0 220 -70.5t75 -203.5v-537q0 -78 69 -78q96 0 167 111.5t71 369.5q0 336 -166 497t-453 161q-313 0 -487 -197.5t-174 -584.5q0 -369 147.5 -552.5t450.5 -183.5q68 0 163 19.5t144 46.5v-123 q-55 -23 -149.5 -39t-157.5 -16q-342 0 -529.5 208.5t-187.5 641.5zM696 328q0 -82 33 -116t100 -34q80 0 141.5 64.5t61.5 177.5v90q-168 0 -252 -38t-84 -144z" />
<glyph unicode="A" horiz-adv-x="1120" d="M-2 0l446 1405h232l446 -1405h-194l-97 313h-557l-96 -313h-180zM324 477h456l-190 625q-8 29 -19.5 83t-13.5 72h-8q-2 -18 -13.5 -72.5t-19.5 -82.5z" />
<glyph unicode="B" horiz-adv-x="1120" d="M133 0v1405h533q158 0 260 -95.5t102 -248.5q0 -117 -60.5 -204t-154.5 -120v-8q109 -33 178.5 -129t69.5 -227q0 -115 -53.5 -199t-143.5 -129t-198 -45h-533zM313 164h328q102 0 166.5 61.5t64.5 171.5q0 98 -67.5 169t-175.5 71h-316v-473zM313 801h299 q100 0 164 64.5t64 156.5q0 109 -57.5 164t-157.5 55h-312v-440z" />
<glyph unicode="C" horiz-adv-x="1212" d="M86 702q0 727 553 728q223 0 356 -136.5t133 -396.5h-184q0 180 -82 273.5t-223 93.5q-184 0 -274.5 -127t-90.5 -383v-103q0 -256 90.5 -383t274.5 -127q145 0 228 92.5t83 270.5h178q0 -262 -132 -395.5t-357 -133.5q-553 0 -553 727z" />
<glyph unicode="D" horiz-adv-x="1212" d="M143 0v1405h437q252 0 392 -174t140 -508q0 -356 -139 -539.5t-393 -183.5h-437zM324 164h239q170 0 265.5 128t95.5 380v102q0 229 -95.5 348t-265.5 119h-239v-1077z" />
<glyph unicode="E" horiz-adv-x="1120" d="M143 0v1405h867v-164h-686v-440h596v-164h-596v-473h698v-164h-879z" />
<glyph unicode="F" horiz-adv-x="1026" d="M143 0v1405h811v-164h-630v-455h557v-163h-557v-623h-181z" />
<glyph unicode="G" horiz-adv-x="1306" d="M100 702q0 358 147.5 543t416.5 185q229 0 369.5 -129.5t140.5 -374.5h-185q0 170 -87 254t-238 84q-178 0 -276.5 -129t-98.5 -381v-103q0 -254 93 -382t271 -128q174 0 255 98.5t81 301.5v32h-364v158h549v-731h-119l-39 156q-123 -180 -363 -181q-268 0 -410.5 182.5 t-142.5 544.5z" />
<glyph unicode="H" horiz-adv-x="1212" d="M143 0v1405h181v-604h565v604h180v-1405h-180v637h-565v-637h-181z" />
<glyph unicode="I" horiz-adv-x="466" d="M143 0v1405h181v-1405h-181z" />
<glyph unicode="J" horiz-adv-x="839" d="M27 334v92h180v-102q0 -88 41 -135.5t119 -47.5t118.5 47.5t40.5 135.5v1081h181v-1071q0 -174 -89.5 -266.5t-250.5 -92.5q-162 0 -251 92.5t-89 266.5z" />
<glyph unicode="K" horiz-adv-x="1120" d="M143 0v1405h181v-743l557 743h200l-422 -567l437 -838h-205l-342 686l-225 -250v-436h-181z" />
<glyph unicode="L" d="M143 0v1405h181v-1241h573v-164h-754z" />
<glyph unicode="M" horiz-adv-x="1398" d="M127 0v1405h274l248 -922q16 -63 29.5 -171.5t17.5 -143.5h9q2 35 15 144.5t30 170.5l249 922h273v-1405h-180v1020q0 31 6 110.5t8 106.5h-8q-6 -27 -22.5 -106.5t-24.5 -110.5l-281 -1020h-162l-280 1020q-12 51 -24.5 119.5t-18.5 97.5h-9q2 -29 6.5 -97.5t6.5 -119.5 v-1020h-162z" />
<glyph unicode="N" horiz-adv-x="1212" d="M143 0v1405h156l522 -883q18 -33 48 -99.5t38 -88.5l6 2q0 23 -3 80t-3 106v883h162v-1405h-149l-527 895q-23 37 -52.5 102.5t-37.5 85.5l-6 -2q2 -20 5 -76.5t3 -109.5v-895h-162z" />
<glyph unicode="O" horiz-adv-x="1306" d="M100 702q0 358 145.5 543t407.5 185t407.5 -184.5t145.5 -543.5q0 -358 -145.5 -542.5t-407.5 -184.5t-407.5 184.5t-145.5 542.5zM289 651q0 -252 96 -381t268 -129t268.5 129t96.5 381v103q0 252 -96.5 381t-268.5 129t-268 -129t-96 -381v-103z" />
<glyph unicode="P" horiz-adv-x="1120" d="M143 0v1405h502q203 0 311.5 -110.5t108.5 -299.5q0 -188 -113.5 -301.5t-306.5 -113.5h-321v-580h-181zM324 743h315q106 0 172 69t66 183q0 115 -61.5 180.5t-176.5 65.5h-315v-498z" />
<glyph unicode="Q" horiz-adv-x="1306" d="M100 702q0 358 145.5 543t407.5 185t407.5 -184.5t145.5 -543.5q0 -274 -86 -448t-248 -240l291 -268h-241l-244 229h-25q-262 0 -407.5 184.5t-145.5 542.5zM289 651q0 -252 96 -381t268 -129t268.5 129t96.5 381v103q0 252 -96.5 381t-268.5 129t-268 -129t-96 -381 v-103z" />
<glyph unicode="R" horiz-adv-x="1212" d="M143 0v1405h566q203 0 311 -105.5t108 -283.5q0 -131 -65.5 -227.5t-183.5 -135.5l282 -653h-200l-261 621h-376v-621h-181zM324 784h378q106 0 172 63.5t66 168.5q0 106 -61.5 165.5t-176.5 59.5h-378v-457z" />
<glyph unicode="S" horiz-adv-x="1120" d="M84 397l2 41h186l-2 -43q0 -125 77 -189.5t202 -64.5q141 0 218 60.5t77 173.5q0 76 -42 124t-104.5 76.5t-171.5 63.5q-133 45 -215 86t-140 120t-58 208q0 184 124.5 280.5t321.5 96.5t318.5 -97.5t121.5 -298.5v-24h-186v30q0 104 -70.5 164t-179.5 60 q-117 0 -188.5 -50.5t-71.5 -146.5q0 -72 41 -118t102.5 -73.5t167.5 -62.5q135 -45 218 -85t141.5 -119t58.5 -203q0 -225 -128 -328t-347 -103q-209 0 -341 102.5t-132 319.5z" />
<glyph unicode="T" horiz-adv-x="1026" d="M39 1241v164h946v-164h-383v-1241h-180v1241h-383z" />
<glyph unicode="U" horiz-adv-x="1212" d="M143 457v948h181v-959q0 -147 74.5 -226t207.5 -79t208 79t75 226v959h180v-948q0 -233 -122 -357.5t-341 -124.5t-341 124t-122 358z" />
<glyph unicode="V" horiz-adv-x="1120" d="M16 1405h199l348 -1206h8l359 1206h174l-428 -1405h-232z" />
<glyph unicode="W" horiz-adv-x="1585" d="M20 1405h191l215 -971q12 -51 25.5 -137t17.5 -113h8q2 23 11.5 91.5t23.5 158.5l162 971h250l174 -971q12 -63 23.5 -144t13.5 -106h8q4 27 17.5 110t25.5 140l215 971h164l-326 -1405h-233l-172 952q-10 59 -22.5 155.5t-16.5 127.5h-9q-4 -31 -16 -127t-22 -156 l-168 -952h-234z" />
<glyph unicode="X" horiz-adv-x="1120" d="M8 0l449 729l-408 676h213l301 -502h2l309 502h193l-408 -660l453 -745h-213l-344 573h-2l-352 -573h-193z" />
<glyph unicode="Y" horiz-adv-x="1120" d="M16 1405h199l356 -651h9l350 651h174l-453 -823v-582h-180v582z" />
<glyph unicode="Z" horiz-adv-x="1026" d="M41 0v78l668 1163h-625v164h883v-78l-670 -1163h684v-164h-940z" />
<glyph unicode="[" horiz-adv-x="466" d="M100 -330v1835h326v-133h-170v-1569h170v-133h-326z" />
<glyph unicode="\" horiz-adv-x="466" d="M2 1505h143l322 -1605h-145z" />
<glyph unicode="]" horiz-adv-x="466" d="M41 -197h170v1569h-170v133h326v-1835h-326v133z" />
<glyph unicode="^" horiz-adv-x="788" d="M8 602l279 803h219l280 -803h-184l-207 645l-202 -645h-185z" />
<glyph unicode="_" d="M0 -145h932v-109h-932v109z" />
<glyph unicode="`" horiz-adv-x="559" d="M55 1475l2 6h185l176 -271h-142z" />
<glyph unicode="a" d="M70 279q0 207 140 283.5t404 76.5v139q0 84 -36.5 129t-133.5 45q-88 0 -126.5 -49t-38.5 -121v-24h-166q-2 12 -2 45q0 143 94 221t252 78q162 0 243.5 -78t81.5 -223v-604q0 -35 16.5 -53.5t41.5 -18.5h65v-117q-43 -24 -105 -24h-5q-66 0 -110 35.5t-60 97.5h-11 q-41 -68 -109.5 -105t-152.5 -37q-110 0 -196 65.5t-86 238.5zM246 289q0 -88 35.5 -126t109.5 -38q55 0 106.5 30.5t84 91t32.5 144.5v98q-184 0 -276 -41.5t-92 -158.5z" />
<glyph unicode="b" d="M123 0v1481h168v-506h10q27 59 88.5 93t140.5 34q143 0 232.5 -141.5t89.5 -419.5q0 -287 -87 -426.5t-247 -139.5q-74 0 -135 38t-100 112h-11l-22 -125h-127zM291 500q0 -375 192 -375q99 0 146 88t47 287v78q0 199 -47 286.5t-146 87.5q-193 0 -192 -383v-69z" />
<glyph unicode="c" horiz-adv-x="839" d="M74 539q0 291 90 427t278 136q172 0 251 -106.5t79 -317.5h-174q0 145 -34 209.5t-122 64.5q-98 0 -145 -93t-47 -281v-78q0 -188 46 -281.5t146 -93.5q88 0 126 67.5t38 206.5h166q0 -184 -81 -304t-249 -120q-190 0 -279 136.5t-89 427.5z" />
<glyph unicode="d" d="M82 541q0 279 89 420t232 141q80 0 141.5 -34t88.5 -93h10v506h168v-1481h-127l-22 125h-11q-39 -74 -100.5 -112t-134.5 -38q-160 0 -247 139.5t-87 426.5zM258 500q0 -199 47 -287t146 -88q192 0 192 375v69q0 383 -192 383q-98 0 -145.5 -88t-47.5 -286v-78z" />
<glyph unicode="e" d="M86 539q0 289 100.5 426t305.5 137q180 0 267 -120t87 -386v-107h-584q2 -188 58.5 -276t177.5 -88q82 0 132 65.5t50 176.5h166q0 -180 -97.5 -286t-254.5 -106q-205 0 -306.5 134.5t-101.5 429.5zM264 639h406q0 154 -45 233.5t-133 79.5q-109 0 -163.5 -76.5 t-64.5 -236.5z" />
<glyph unicode="f" horiz-adv-x="466" d="M18 928v149h95v172q0 106 50 177t163 71q72 0 141 -24v-117h-90q-96 0 -96 -99v-180h186v-149h-186v-928h-168v928h-95z" />
<glyph unicode="g" d="M27 -117q0 80 37.5 142.5t101.5 87.5q-41 27 -64.5 69.5t-23.5 91.5q0 63 41 112.5t110 74.5q-125 102 -125 278q0 170 94.5 266.5t258.5 96.5q84 0 155 -39q66 35 95.5 82t37.5 106h148q0 -98 -48 -167.5t-132 -90.5q96 -100 96 -254q0 -166 -93 -263t-251 -99h-113 q-41 0 -69.5 -27.5t-28.5 -68.5q0 -39 28.5 -68t69.5 -29h307q115 0 184.5 -72.5t69.5 -179.5q0 -133 -82.5 -219t-232.5 -86h-305q-127 0 -196.5 73t-69.5 183zM195 -100q0 -55 32.5 -91t91.5 -36h297q53 0 90 36.5t37 90.5q0 55 -32.5 90t-94.5 35h-297q-61 0 -92.5 -35 t-31.5 -90zM272 739q0 -109 47.5 -166t135.5 -57t136 59.5t48 163.5q0 109 -48 166.5t-136 57.5t-135.5 -59.5t-47.5 -164.5z" />
<glyph unicode="h" d="M123 0v1481h168v-516h12q78 137 242 137q129 0 197.5 -77t68.5 -249v-776h-168v764q0 104 -39 146t-112 42q-84 0 -142.5 -79.5t-58.5 -215.5v-657h-168z" />
<glyph unicode="i" horiz-adv-x="372" d="M102 0v1077h168v-1077h-168zM102 1280v201h168v-201h-168z" />
<glyph unicode="j" horiz-adv-x="372" d="M-84 -231h90q96 0 96 98v1210h168v-1202q0 -106 -50 -177t-163 -71q-71 0 -141 25v117zM102 1280v201h168v-201h-168z" />
<glyph unicode="k" horiz-adv-x="839" d="M123 0v1481h168v-903l348 499h186l-317 -442l334 -635h-191l-245 492l-115 -125v-367h-168z" />
<glyph unicode="l" horiz-adv-x="372" d="M102 0v1481h168v-1481h-168z" />
<glyph unicode="m" horiz-adv-x="1398" d="M123 0v1077h127l22 -125h13q80 150 245 150q174 0 230 -156q41 76 111.5 116t150.5 40q254 0 254 -326v-776h-168v764q0 104 -37 146t-102 42q-78 0 -131.5 -79.5t-53.5 -215.5v-657h-168v764q0 104 -36.5 146t-102.5 42q-78 0 -132 -79.5t-54 -215.5v-657h-168z" />
<glyph unicode="n" d="M123 0v1077h127l22 -125h13q84 150 260 150q129 0 197.5 -77t68.5 -249v-776h-168v764q0 104 -39 146t-112 42q-84 0 -142.5 -79.5t-58.5 -215.5v-657h-168z" />
<glyph unicode="o" d="M82 539q0 287 97 425t288 138q190 0 287.5 -138.5t97.5 -424.5q0 -287 -97.5 -425.5t-287.5 -138.5q-191 0 -288 138.5t-97 425.5zM258 500q0 -375 209 -375t209 375v78q0 374 -208 374h-1q-209 0 -209 -374v-78z" />
<glyph unicode="p" d="M123 -354v1431h127l22 -125h11q39 74 100 112t135 38q160 0 247 -139.5t87 -425.5q0 -279 -89 -420.5t-233 -141.5q-78 0 -140 32t-89 87h-10v-448h-168zM291 500q0 -375 192 -375q99 0 146 88t47 287v78q0 199 -47 286.5t-146 87.5q-193 0 -192 -374v-78z" />
<glyph unicode="q" d="M82 537q0 287 87 426t247 139q74 0 135 -38t100 -112h11l22 125h127v-1431h-168v448h-10q-27 -55 -89.5 -87t-140.5 -32q-143 0 -232 141.5t-89 420.5zM258 500q0 -199 47 -287t146 -88q192 0 192 375v78q0 374 -191 374h-1q-98 0 -145.5 -88t-47.5 -286v-78z" />
<glyph unicode="r" horiz-adv-x="559" d="M123 0v1077h127l22 -141h13q23 72 67.5 119t114.5 47q29 0 51.5 -7.5l28.5 -9.5v-174h-55q-88 0 -144.5 -60t-56.5 -194v-657h-168z" />
<glyph unicode="s" horiz-adv-x="839" d="M68 291q0 25 1 34t1 11h176v-21q0 -96 49 -144t127 -48q70 0 116 42t46 118q0 57 -29 94t-70 58.5t-114 47.5q-90 31 -145.5 61.5t-94.5 91t-39 159.5q0 141 91 224t245 83q145 0 227 -85t82 -210l-2 -39h-174v18q0 72 -34.5 120t-114.5 48t-113 -45t-33 -102 q0 -70 48 -103.5t149 -66.5q92 -33 151.5 -64.5t101.5 -95t42 -170.5q0 -166 -93.5 -249t-250.5 -83q-174 0 -260 91.5t-86 224.5z" />
<glyph unicode="t" horiz-adv-x="466" d="M29 928v149h92l37 299h131v-299h145v-149h-145v-705q0 -98 96 -98h49v-117q-23 -12 -56.5 -20t-64.5 -8q-102 0 -147 70.5t-45 176.5v701h-92z" />
<glyph unicode="u" d="M123 301v776h168v-764q0 -104 39 -146t112 -42q84 0 142.5 80t58.5 215v657h168v-1077h-127l-22 125h-13q-84 -150 -260 -150q-129 0 -197.5 77t-68.5 249z" />
<glyph unicode="v" horiz-adv-x="839" d="M20 1077h185l145 -547l74 -272h8l74 279l145 540h170l-309 -1077h-182z" />
<glyph unicode="w" horiz-adv-x="1212" d="M2 1077h184l136 -606q12 -55 25 -142t18 -114h8q2 25 11 105.5t22 150.5l108 606h195l110 -606q12 -68 21.5 -149.5t11.5 -106.5h8q2 23 14.5 100.5t28.5 155.5l135 606h170l-268 -1077h-186l-113 614q-12 70 -21.5 148t-11.5 100h-8q-2 -23 -11 -100.5t-22 -147.5 l-110 -614h-187z" />
<glyph unicode="x" horiz-adv-x="839" d="M12 0l314 545l-299 532h202l193 -368h2l201 368h188l-301 -518l315 -559h-202l-209 393h-2l-217 -393h-185z" />
<glyph unicode="y" horiz-adv-x="839" d="M20 1077h185l182 -643l55 -192h9l47 196l153 639h170l-274 -1022q-53 -201 -135 -314.5t-213 -113.5q-74 1 -121 17v116h59q162 0 213 240z" />
<glyph unicode="z" horiz-adv-x="839" d="M53 0v80l473 848h-440v149h672v-78l-475 -849h501v-150h-731z" />
<glyph unicode="{" horiz-adv-x="561" d="M41 504v172q63 0 110.5 29.5t47.5 93.5v403q0 176 86 239.5t235 63.5v-116q-68 0 -115 -32t-47 -114q0 -145 -10 -330l-4 -92q-4 -111 -45 -166t-135 -55v-20q94 0 135 -55.5t45 -166.5l4 -92q10 -184 10 -329q0 -82 47.5 -114t114.5 -32v-117q-149 0 -235 63.5 t-86 239.5v404q0 63 -47.5 93t-110.5 30z" />
<glyph unicode="|" horiz-adv-x="436" d="M137 -354v1835h162v-1835h-162z" />
<glyph unicode="}" horiz-adv-x="561" d="M41 -209q68 0 115 32t47 114q0 145 10 329l4 92q4 111 45 166.5t135 55.5v20q-94 0 -135 55.5t-45 165.5l-4 92q-10 184 -10 330q0 82 -47 114t-115 32v116q150 0 235.5 -63.5t85.5 -239.5v-403q0 -63 47.5 -93t110.5 -30v-172q-63 0 -110.5 -30t-47.5 -93v-404 q0 -176 -86 -239.5t-235 -63.5v117z" />
<glyph unicode="~" horiz-adv-x="980" d="M72 432v189q0 6 30.5 45t85 71.5t125.5 32.5q43 0 81 -15.5t93 -45.5q55 -31 95.5 -47.5t85.5 -16.5q63 0 116.5 33t89 73t35.5 44v-189q0 -6 -30.5 -45t-85 -71.5t-125.5 -32.5q-43 0 -81 15t-93 46t-95.5 47.5t-85.5 16.5q-63 0 -116.5 -33t-89 -73t-35.5 -44z" />
<glyph unicode="&#xa1;" horiz-adv-x="559" d="M205 -328l51 1055h127l53 -1055h-231zM219 856v221h205v-221h-205z" />
<glyph unicode="&#xa2;" d="M98 702q0 268 81 405.5t251 154.5v219h100v-217q158 -14 231 -120t73 -302h-175q0 127 -28.5 191.5t-100.5 78.5v-819q74 14 106 80.5t32 189.5h166q0 -172 -75 -288.5t-229 -133.5v-241h-100v241q-170 18 -251 154.5t-81 406.5zM274 664q0 -164 37 -255.5t119 -113.5 v813q-80 -20 -118 -112.5t-38 -254.5v-77z" />
<glyph unicode="&#xa3;" d="M39 623v147h147v252q0 201 86 304.5t244 103.5q160 0 245 -93.5t85 -304.5v-26h-168v32q0 242 -162 242q-160 0 -160 -225v-285h273v-147h-275l-18 -461h510v-162h-785v162h125v461h-147z" />
<glyph unicode="&#xa4;" d="M-6 326l100 100q-72 123 -71 274q0 147 71 275l-100 100l98 99l86 -89q59 57 133 89t156 32q80 0 153.5 -31.5t133.5 -89.5l88 89l98 -99l-100 -100q72 -127 71 -275q0 -152 -71 -274l100 -100l-98 -99l-88 88q-59 -57 -133 -87.5t-154 -30.5q-162 -1 -287 118l-88 -88z M162 700q0 -98 41 -182t110.5 -132t153.5 -48q82 0 151.5 49t110.5 132t41 181q0 100 -41 183.5t-110.5 132.5t-151.5 49q-84 0 -153.5 -49t-110.5 -132t-41 -184z" />
<glyph unicode="&#xa5;" d="M4 1405h195l278 -600h8l273 600h170l-307 -649h262v-133h-326v-144h326v-133h-326v-346h-180v346h-326v133h326v144h-326v133h262z" />
<glyph unicode="&#xa6;" horiz-adv-x="436" d="M137 -354v778h162v-778h-162zM137 702v779h162v-779h-162z" />
<glyph unicode="&#xa7;" d="M139 567q0 92 41 163t103 112q-123 104 -123 280q0 143 88 225.5t248 82.5q145 0 227 -85t82 -210l-2 -39h-174q0 94 -37 140t-113 46q-78 0 -111.5 -45t-33.5 -102q0 -66 28.5 -113t70.5 -79t118 -75q90 -51 144.5 -93t92 -111.5t37.5 -174.5q0 -92 -41 -162.5 t-102 -113.5q57 -51 90 -117.5t33 -161.5q0 -143 -88 -225t-248 -82q-145 0 -227 85t-82 210l2 39h174q0 -94 37 -140t112 -46q78 0 112 45t34 102q0 66 -29 113t-71 78.5t-117 74.5q-90 51 -144.5 93.5t-92.5 112t-38 173.5zM303 610q0 -74 31 -127t75 -87t121 -83 q29 -14 60 -34q72 56 72 167q0 76 -32 129.5t-77 87t-125 80.5l-55 33q-70 -53 -70 -166z" />
<glyph unicode="&#xa8;" horiz-adv-x="559" d="M37 1286v195h178v-195h-178zM344 1286v195h178v-195h-178z" />
<glyph unicode="&#xa9;" horiz-adv-x="1236" d="M43 702q0 221 69.5 385t198.5 253.5t307 89.5t307.5 -89.5t199 -253t69.5 -385.5q0 -221 -69.5 -384.5t-198.5 -253t-308 -89.5q-178 0 -307 89.5t-198.5 253t-69.5 384.5zM137 702q0 -190 58.5 -332.5t167 -220t255.5 -77.5q148 0 256.5 77.5t167 220t58.5 332.5 t-58.5 333t-167 220.5t-256.5 77.5q-147 0 -255.5 -77.5t-167 -220t-58.5 -333.5zM297 713q0 430 326 430q131 0 209.5 -80t78.5 -234h-118q0 102 -45.5 154.5t-124.5 52.5q-104 0 -154.5 -71.5t-50.5 -219.5v-61q0 -293 205 -293q80 0 127 52.5t47 152.5h114 q0 -154 -78.5 -232.5t-209.5 -78.5q-326 0 -326 428z" />
<glyph unicode="&#xaa;" horiz-adv-x="620" d="M41 948q0 143 94 195.5t273 52.5v88q0 55 -24 85t-85 30q-57 0 -83 -33t-26 -80v-20h-120v34q0 98 64.5 151.5t170.5 53.5q111 0 167 -53t56 -152v-405q0 -23 10.5 -34t24.5 -11h47v-84q-27 -18 -78 -18q-43 0 -72.5 23.5t-41.5 64.5h-4q-29 -45 -75 -70t-103 -25 q-76 0 -135.5 44t-59.5 163zM168 954q0 -57 23.5 -80.5t70.5 -23.5q55 0 100.5 46t45.5 128v63q-119 0 -179.5 -27.5t-60.5 -105.5z" />
<glyph unicode="&#xab;" d="M111 668l288 409h146l-232 -409l232 -410h-146zM420 668l291 409h143l-229 -409l229 -410h-143z" />
<glyph unicode="&#xac;" horiz-adv-x="980" d="M80 737v191h811v-525h-172v334h-639z" />
<glyph unicode="&#xad;" horiz-adv-x="559" d="M20 453v200h517v-200h-517z" />
<glyph unicode="&#xae;" horiz-adv-x="1236" d="M43 702q0 221 69.5 385t198.5 253.5t307 89.5t307.5 -89.5t199 -253t69.5 -385.5q0 -221 -69.5 -384.5t-198.5 -253t-308 -89.5q-178 0 -307 89.5t-198.5 253t-69.5 384.5zM137 702q0 -190 58.5 -332.5t167 -220t255.5 -77.5q148 0 256.5 77.5t167 220t58.5 332.5 t-58.5 333t-167 220.5t-256.5 77.5q-147 0 -255.5 -77.5t-167 -220t-58.5 -333.5zM356 303v823h330q92 0 151.5 -57t59.5 -149q0 -72 -36 -123.5t-93 -69.5v-8q39 -16 81 -67.5t42 -151.5q0 -82 13.5 -114t43.5 -44v-35q-25 -10 -59 -10q-117 0 -117 156q0 113 -40 161 t-93 48h-166v-359h-117zM473 770h170q61 0 97 36t36 91q0 57 -34.5 89t-92.5 32h-176v-248z" />
<glyph unicode="&#xaf;" horiz-adv-x="559" d="M25 1227v147h512v-147h-512z" />
<glyph unicode="&#xb0;" horiz-adv-x="819" d="M129 1153q0 76 37 139.5t100.5 100.5t139.5 37t139 -37t100 -100.5t37 -139.5t-37 -139.5t-100.5 -100t-138.5 -36.5q-76 0 -139.5 36.5t-100.5 100t-37 139.5zM238 1153q0 -70 49 -119t119 -49q69 0 117 49t48 119t-48 118t-117 48q-70 0 -119 -48t-49 -118z" />
<glyph unicode="&#xb1;" horiz-adv-x="1124" d="M160 0v170h803v-170h-803zM160 635v172h315v377h170v-377h318v-172h-318v-375h-170v375h-315z" />
<glyph unicode="&#xb2;" horiz-adv-x="559" d="M49 659v33q0 86 43 154.5t127 159.5q80 84 120 144t40 132q0 41 -21.5 71.5t-70.5 30.5t-73 -37.5t-24 -97.5v-63h-129q0 6 -2 23.5t-2 37.5q0 129 65.5 193.5t166.5 64.5q100 0 162.5 -55t62.5 -168q0 -90 -51 -171t-141 -179q-12 -14 -39 -42t-46.5 -52.5t-29.5 -49.5 h309v-129h-467z" />
<glyph unicode="&#xb3;" horiz-adv-x="559" d="M47 903v23h131v-27q0 -135 103 -135q53 0 82.5 32.5t29.5 100.5q0 127 -114 127h-72v117h74q43 0 71.5 31.5t28.5 91.5q0 61 -26.5 93t-67.5 32q-43 0 -70 -33t-27 -96v-27h-129v37q0 106 62.5 170.5t161.5 64.5q102 0 163.5 -61.5t61.5 -173.5q0 -66 -24.5 -109 t-73.5 -74q49 -27 79.5 -76.5t30.5 -119.5q0 -113 -64.5 -178.5t-168.5 -65.5q-115 0 -178.5 68.5t-63.5 187.5z" />
<glyph unicode="&#xb4;" horiz-adv-x="559" d="M139 1210l176 271h185l2 -6l-221 -265h-142z" />
<glyph unicode="&#xb5;" d="M123 -354v1431h168v-786q0 -92 40 -129t111 -37q84 0 142.5 80t58.5 215v657h168v-1077h-127l-22 125h-13q-84 -150 -260 -150q-57 0 -98 15v-344h-168z" />
<glyph unicode="&#xb6;" horiz-adv-x="901" d="M37 956q0 123 52 225.5t142.5 163t198.5 60.5h428v-125h-98v-1634h-135v1634h-109v-1634h-133v866q-98 12 -177 74.5t-124 159t-45 210.5z" />
<glyph unicode="&#xb7;" horiz-adv-x="466" d="M129 590v227h207v-227h-207z" />
<glyph unicode="&#xb8;" horiz-adv-x="559" d="M74 -256h155q37 0 55.5 11.5t18.5 37.5q0 25 -15.5 37t-54.5 12h-67l29 181h112l-14 -97q166 -12 166 -133q0 -92 -65.5 -129t-147.5 -37q-94 1 -172 17v100z" />
<glyph unicode="&#xb9;" horiz-adv-x="559" d="M80 1307v88q49 6 117.5 31.5t113.5 56.5h60v-705h149v-119h-438v119h162v529h-164z" />
<glyph unicode="&#xba;" horiz-adv-x="612" d="M43 1122q0 383 262 383t262 -383t-262 -383t-262 383zM170 1096q0 -248 135 -248q137 0 137 248v53q0 248 -137 248q-135 0 -135 -248v-53z" />
<glyph unicode="&#xbb;" d="M80 258l229 410l-229 409h143l291 -409l-291 -410h-143zM389 258l232 410l-232 409h146l288 -409l-288 -410h-146z" />
<glyph unicode="&#xbc;" horiz-adv-x="1400" d="M63 1229v88q49 6 118 31.5t114 56.5h59v-705h150v-118h-438v118h161v529h-164zM236 -25l851 1455h127l-849 -1455h-129zM797 197v106q129 233 213 543h127q-31 -141 -93.5 -295t-111.5 -238h174v187q55 147 72 227h55v-414h82v-116h-82v-197h-127v197h-309z" />
<glyph unicode="&#xbd;" horiz-adv-x="1400" d="M63 1229v88q49 6 118 31.5t114 56.5h59v-705h150v-118h-438v118h161v529h-164zM213 -25l852 1455h127l-850 -1455h-129zM846 0v33q0 86 42 154.5t126 156.5q84 90 123 148.5t39 130.5q0 41 -21.5 71.5t-71.5 30.5q-49 0 -72.5 -38t-23.5 -97v-64h-129q0 6 -2 23.5 t-2 38.5q0 129 65.5 193.5t165.5 64.5t163 -55.5t63 -167.5q0 -90 -51.5 -171t-141.5 -180q-12 -14 -38.5 -41.5t-46 -52t-29.5 -49.5h309v-129h-467z" />
<glyph unicode="&#xbe;" horiz-adv-x="1400" d="M55 827v23h131v-27q0 -135 103 -135q53 0 82.5 33t29.5 100q0 127 -114 127h-72v117h74q43 0 71.5 31.5t28.5 91.5q0 61 -26.5 93t-67.5 32q-43 0 -69.5 -33t-26.5 -96v-27h-129v37q0 106 62.5 171t160.5 65q102 0 163.5 -61.5t61.5 -174.5q0 -66 -24.5 -109t-73.5 -73 q49 -27 79.5 -77t30.5 -120q0 -113 -64.5 -178.5t-168.5 -65.5q-115 0 -178.5 69t-63.5 187zM219 -25l852 1455h127l-850 -1455h-129zM797 197v106q129 233 213 543h127q-31 -141 -93.5 -295t-111.5 -238h174v187q55 147 72 227h55v-414h82v-116h-82v-197h-127v197h-309z " />
<glyph unicode="&#xbf;" horiz-adv-x="1026" d="M143 4q0 96 21.5 167t52.5 115t80 101q57 66 85 115t28 123v84h178v-115q0 -92 -33 -152.5t-98 -134.5q-63 -74 -95 -132t-32 -148q0 -74 41 -148t151 -74q109 0 147 85t38 192q0 23 -1 37t-1 18h182q2 -8 4 -28.5t2 -42.5q0 -188 -99.5 -303t-285.5 -115 q-105 0 -187.5 45t-130 126t-47.5 185zM397 856v221h205v-221h-205z" />
<glyph unicode="&#xc0;" horiz-adv-x="1120" d="M-2 0l446 1405h232l446 -1405h-194l-97 313h-557l-96 -313h-180zM319 1802l3 6h184l176 -270h-141zM324 477h456l-190 625q-8 29 -19.5 83t-13.5 72h-8q-2 -18 -13.5 -72.5t-19.5 -82.5z" />
<glyph unicode="&#xc1;" horiz-adv-x="1120" d="M-2 0l446 1405h232l446 -1405h-194l-97 313h-557l-96 -313h-180zM324 477h456l-190 625q-8 29 -19.5 83t-13.5 72h-8q-2 -18 -13.5 -72.5t-19.5 -82.5zM438 1538l176 270h185l2 -6l-221 -264h-142z" />
<glyph unicode="&#xc2;" horiz-adv-x="1120" d="M-2 0l446 1405h232l446 -1405h-194l-97 313h-557l-96 -313h-180zM305 1530l176 276h160l174 -276h-164l-90 162l-92 -162h-164zM324 477h456l-190 625q-8 29 -19.5 83t-13.5 72h-8q-2 -18 -13.5 -72.5t-19.5 -82.5z" />
<glyph unicode="&#xc3;" horiz-adv-x="1120" d="M-2 0l446 1405h232l446 -1405h-194l-97 313h-557l-96 -313h-180zM260 1595q0 82 45 147.5t129 65.5q31 0 57.5 -8t65.5 -24q74 -29 113 -29q61 0 69 61h119q0 -82 -44 -147.5t-130 -65.5q-31 0 -57.5 8.5t-65.5 24.5q-70 31 -112 31q-61 0 -68 -64h-121zM324 477h456 l-190 625q-8 29 -19.5 83t-13.5 72h-8q-2 -18 -13.5 -72.5t-19.5 -82.5z" />
<glyph unicode="&#xc4;" horiz-adv-x="1120" d="M-2 0l446 1405h232l446 -1405h-194l-97 313h-557l-96 -313h-180zM317 1614v194h179v-194h-179zM324 477h456l-190 625q-8 29 -19.5 83t-13.5 72h-8q-2 -18 -13.5 -72.5t-19.5 -82.5zM625 1614v194h178v-194h-178z" />
<glyph unicode="&#xc5;" horiz-adv-x="1120" d="M-2 0l446 1405h232l446 -1405h-194l-97 313h-557l-96 -313h-180zM324 477h456l-190 625q-8 29 -19.5 83t-13.5 72h-8q-2 -18 -13.5 -72.5t-19.5 -82.5zM362 1677q0 82 57.5 139.5t139.5 57.5q84 0 140.5 -57.5t56.5 -139.5t-57.5 -139t-139.5 -57q-80 0 -138.5 57 t-58.5 139zM455 1677q0 -43 31.5 -73.5t72.5 -30.5t73 30.5t32 73.5t-32 74t-73 31t-72.5 -31t-31.5 -74z" />
<glyph unicode="&#xc6;" horiz-adv-x="1679" d="M-2 0l573 1405h1020v-164h-751l100 -440h561v-164h-524l106 -473h521v-164h-676l-70 313h-559l-121 -313h-180zM362 477h461l-139 635q-8 29 -14 72t-8 55h-9q-4 -14 -16 -51t-27 -76z" />
<glyph unicode="&#xc7;" horiz-adv-x="1212" d="M86 702q0 727 553 728q223 0 356 -136.5t133 -396.5h-184q0 180 -82 273.5t-223 93.5q-184 0 -274.5 -127t-90.5 -383v-103q0 -256 90.5 -383t274.5 -127q145 0 228 92.5t83 270.5h178q0 -262 -132 -395.5t-357 -133.5l-6 -49q166 -12 166 -133q0 -92 -65.5 -129 t-147.5 -37q-94 1 -172 17v100h155q37 0 55.5 11.5t18.5 37.5q0 25 -15.5 37t-54.5 12h-67l22 142q-442 68 -442 718z" />
<glyph unicode="&#xc8;" horiz-adv-x="1120" d="M143 0v1405h867v-164h-686v-440h596v-164h-596v-473h698v-164h-879zM319 1802l3 6h184l176 -270h-141z" />
<glyph unicode="&#xc9;" horiz-adv-x="1120" d="M143 0v1405h867v-164h-686v-440h596v-164h-596v-473h698v-164h-879zM438 1538l176 270h185l2 -6l-221 -264h-142z" />
<glyph unicode="&#xca;" horiz-adv-x="1120" d="M143 0v1405h867v-164h-686v-440h596v-164h-596v-473h698v-164h-879zM305 1530l176 276h160l174 -276h-164l-90 162l-92 -162h-164z" />
<glyph unicode="&#xcb;" horiz-adv-x="1120" d="M143 0v1405h867v-164h-686v-440h596v-164h-596v-473h698v-164h-879zM317 1614v194h179v-194h-179zM625 1614v194h178v-194h-178z" />
<glyph unicode="&#xcc;" horiz-adv-x="466" d="M-6 1802l2 6h184l176 -270h-141zM143 0v1405h181v-1405h-181z" />
<glyph unicode="&#xcd;" horiz-adv-x="466" d="M113 1538l176 270h182l2 -6l-219 -264h-141zM143 0v1405h181v-1405h-181z" />
<glyph unicode="&#xce;" horiz-adv-x="466" d="M-23 1530l179 276h159l174 -276h-163l-90 162l-93 -162h-166zM143 0v1405h181v-1405h-181z" />
<glyph unicode="&#xcf;" horiz-adv-x="466" d="M-8 1614v194h178v-194h-178zM143 0v1405h181v-1405h-181zM299 1614v194h178v-194h-178z" />
<glyph unicode="&#xd0;" horiz-adv-x="1212" d="M10 662v131h133v612h437q252 0 392 -174t140 -508q0 -356 -139 -539.5t-393 -183.5h-437v662h-133zM324 164h239q170 0 265.5 128t95.5 380v102q0 229 -95.5 348t-265.5 119h-239v-448h321v-131h-321v-498z" />
<glyph unicode="&#xd1;" horiz-adv-x="1212" d="M143 0v1405h156l522 -883q18 -33 48 -99.5t38 -88.5l6 2q0 23 -3 80t-3 106v883h162v-1405h-149l-527 895q-23 37 -52.5 102.5t-37.5 85.5l-6 -2q2 -20 5 -76.5t3 -109.5v-895h-162zM307 1595q0 82 45 147.5t129 65.5q31 0 57.5 -8t65.5 -24q74 -29 113 -29q61 0 69 61 h119q0 -82 -45 -147.5t-129 -65.5q-31 0 -58.5 8.5t-66.5 24.5q-70 31 -110 31q-61 0 -70 -64h-119z" />
<glyph unicode="&#xd2;" horiz-adv-x="1306" d="M100 702q0 358 145.5 543t407.5 185t407.5 -184.5t145.5 -543.5q0 -358 -145.5 -542.5t-407.5 -184.5t-407.5 184.5t-145.5 542.5zM289 651q0 -252 96 -381t268 -129t268.5 129t96.5 381v103q0 252 -96.5 381t-268.5 129t-268 -129t-96 -381v-103zM414 1802l2 6h184 l176 -270h-141z" />
<glyph unicode="&#xd3;" horiz-adv-x="1306" d="M100 702q0 358 145.5 543t407.5 185t407.5 -184.5t145.5 -543.5q0 -358 -145.5 -542.5t-407.5 -184.5t-407.5 184.5t-145.5 542.5zM289 651q0 -252 96 -381t268 -129t268.5 129t96.5 381v103q0 252 -96.5 381t-268.5 129t-268 -129t-96 -381v-103zM532 1538l177 270h184 l2 -6l-221 -264h-142z" />
<glyph unicode="&#xd4;" horiz-adv-x="1306" d="M100 702q0 358 145.5 543t407.5 185t407.5 -184.5t145.5 -543.5q0 -358 -145.5 -542.5t-407.5 -184.5t-407.5 184.5t-145.5 542.5zM289 651q0 -252 96 -381t268 -129t268.5 129t96.5 381v103q0 252 -96.5 381t-268.5 129t-268 -129t-96 -381v-103zM399 1530l176 276h160 l174 -276h-164l-90 162l-92 -162h-164z" />
<glyph unicode="&#xd5;" horiz-adv-x="1306" d="M100 702q0 358 145.5 543t407.5 185t407.5 -184.5t145.5 -543.5q0 -358 -145.5 -542.5t-407.5 -184.5t-407.5 184.5t-145.5 542.5zM289 651q0 -252 96 -381t268 -129t268.5 129t96.5 381v103q0 252 -96.5 381t-268.5 129t-268 -129t-96 -381v-103zM354 1595 q0 82 45 147.5t129 65.5q31 0 57.5 -8t65.5 -24q74 -29 113 -29q61 0 70 61h118q0 -82 -45 -147.5t-129 -65.5q-31 0 -57.5 8.5t-65.5 24.5q-70 31 -112 31q-61 0 -70 -64h-119z" />
<glyph unicode="&#xd6;" horiz-adv-x="1306" d="M100 702q0 358 145.5 543t407.5 185t407.5 -184.5t145.5 -543.5q0 -358 -145.5 -542.5t-407.5 -184.5t-407.5 184.5t-145.5 542.5zM289 651q0 -252 96 -381t268 -129t268.5 129t96.5 381v103q0 252 -96.5 381t-268.5 129t-268 -129t-96 -381v-103zM412 1614v194h178v-194 h-178zM719 1614v194h178v-194h-178z" />
<glyph unicode="&#xd7;" horiz-adv-x="980" d="M78 213l313 309l-313 312l112 120l316 -311l313 311l113 -120l-314 -312l314 -309l-113 -121l-313 307l-316 -307z" />
<glyph unicode="&#xd8;" horiz-adv-x="1306" d="M100 702q0 358 145.5 543t407.5 185q195 0 326 -103l96 154h131l-147 -234q147 -188 147 -545q0 -358 -145.5 -542.5t-407.5 -184.5q-199 0 -325 101l-95 -152h-131l146 232q-147 184 -148 546zM289 651q0 -201 63 -327l533 852q-90 88 -232 88q-172 0 -268 -129 t-96 -381v-103zM422 227q88 -86 231 -86q172 0 268.5 129t96.5 381v103q0 199 -64 325z" />
<glyph unicode="&#xd9;" horiz-adv-x="1212" d="M143 457v948h181v-959q0 -147 74.5 -226t207.5 -79t208 79t75 226v959h180v-948q0 -233 -122 -357.5t-341 -124.5t-341 124t-122 358zM365 1802l2 6h186l174 -270h-139z" />
<glyph unicode="&#xda;" horiz-adv-x="1212" d="M143 457v948h181v-959q0 -147 74.5 -226t207.5 -79t208 79t75 226v959h180v-948q0 -233 -122 -357.5t-341 -124.5t-341 124t-122 358zM483 1538l176 270h185l2 -6l-219 -264h-144z" />
<glyph unicode="&#xdb;" horiz-adv-x="1212" d="M143 457v948h181v-959q0 -147 74.5 -226t207.5 -79t208 79t75 226v959h180v-948q0 -233 -122 -357.5t-341 -124.5t-341 124t-122 358zM350 1530l176 276h160l176 -276h-164l-90 162l-94 -162h-164z" />
<glyph unicode="&#xdc;" horiz-adv-x="1212" d="M143 457v948h181v-959q0 -147 74.5 -226t207.5 -79t208 79t75 226v959h180v-948q0 -233 -122 -357.5t-341 -124.5t-341 124t-122 358zM362 1614v194h179v-194h-179zM670 1614v194h180v-194h-180z" />
<glyph unicode="&#xdd;" horiz-adv-x="1120" d="M16 1405h199l356 -651h9l350 651h174l-453 -823v-582h-180v582zM438 1538l176 270h185l2 -6l-221 -264h-142z" />
<glyph unicode="&#xde;" horiz-adv-x="1120" d="M143 0v1405h181v-279h321q203 0 311.5 -110.5t108.5 -298.5t-113.5 -302t-306.5 -114h-321v-301h-181zM324 465h315q106 0 172 68.5t66 183.5t-61.5 180.5t-176.5 65.5h-315v-498z" />
<glyph unicode="&#xdf;" horiz-adv-x="1026" d="M102 0v1057q0 227 115 337.5t303 110.5q170 0 277.5 -103.5t107.5 -279.5q0 -102 -54 -191t-140 -122v-8q104 -39 170.5 -141.5t66.5 -221.5q0 -129 -54 -228t-147.5 -154.5t-207.5 -55.5h-154v152h137q70 0 128.5 38.5t92 105t33.5 144.5q0 74 -33.5 138.5t-92 101.5 t-128.5 37h-137v149h121q94 0 160.5 74t66.5 176q0 111 -58.5 175.5t-164.5 64.5q-111 0 -175.5 -76t-64.5 -219v-1061h-168z" />
<glyph unicode="&#xe0;" d="M70 279q0 207 140 283.5t404 76.5v139q0 84 -36.5 129t-133.5 45q-88 0 -126.5 -49t-38.5 -121v-24h-166q-2 12 -2 45q0 143 94 221t252 78q162 0 243.5 -78t81.5 -223v-604q0 -35 16.5 -53.5t41.5 -18.5h65v-117q-45 -25 -110 -24q-66 0 -110 35.5t-60 97.5h-11 q-41 -68 -109.5 -105t-152.5 -37q-110 0 -196 65.5t-86 238.5zM217 1475l2 6h184l177 -271h-142zM246 289q0 -88 35.5 -126t109.5 -38q55 0 106.5 30.5t84 91t32.5 144.5v98q-184 0 -276 -41.5t-92 -158.5z" />
<glyph unicode="&#xe1;" d="M70 279q0 207 140 283.5t404 76.5v139q0 84 -36.5 129t-133.5 45q-88 0 -126.5 -49t-38.5 -121v-24h-166q-2 12 -2 45q0 143 94 221t252 78q162 0 243.5 -78t81.5 -223v-604q0 -35 16.5 -53.5t41.5 -18.5h65v-117q-45 -25 -110 -24q-66 0 -110 35.5t-60 97.5h-11 q-41 -68 -109.5 -105t-152.5 -37q-110 0 -196 65.5t-86 238.5zM246 289q0 -88 35.5 -126t109.5 -38q55 0 106.5 30.5t84 91t32.5 144.5v98q-184 0 -276 -41.5t-92 -158.5zM336 1210l176 271h184l2 -6l-221 -265h-141z" />
<glyph unicode="&#xe2;" d="M70 279q0 207 140 283.5t404 76.5v139q0 84 -36.5 129t-133.5 45q-88 0 -126.5 -49t-38.5 -121v-24h-166q-2 12 -2 45q0 143 94 221t252 78q162 0 243.5 -78t81.5 -223v-604q0 -35 16.5 -53.5t41.5 -18.5h65v-117q-45 -25 -110 -24q-66 0 -110 35.5t-60 97.5h-11 q-41 -68 -109.5 -105t-152.5 -37q-110 0 -196 65.5t-86 238.5zM213 1202l174 277h162l174 -277h-164l-90 162l-92 -162h-164zM246 289q0 -88 35.5 -126t109.5 -38q55 0 106.5 30.5t84 91t32.5 144.5v98q-184 0 -276 -41.5t-92 -158.5z" />
<glyph unicode="&#xe3;" d="M70 279q0 207 140 283.5t404 76.5v139q0 84 -36.5 129t-133.5 45q-88 0 -126.5 -49t-38.5 -121v-24h-166q-2 12 -2 45q0 143 94 221t252 78q162 0 243.5 -78t81.5 -223v-604q0 -35 16.5 -53.5t41.5 -18.5h65v-117q-45 -25 -110 -24q-66 0 -110 35.5t-60 97.5h-11 q-41 -68 -109.5 -105t-152.5 -37q-110 0 -196 65.5t-86 238.5zM168 1268q0 82 45 147.5t129 65.5q31 0 57.5 -8.5t65.5 -24.5q70 -31 113 -31q61 0 69 64h119q0 -82 -45 -147.5t-129 -65.5q-31 0 -57.5 8t-65.5 24q-70 31 -113 31q-61 0 -69 -63h-119zM246 289 q0 -88 35.5 -126t109.5 -38q55 0 106.5 30.5t84 91t32.5 144.5v98q-184 0 -276 -41.5t-92 -158.5z" />
<glyph unicode="&#xe4;" d="M70 279q0 207 140 283.5t404 76.5v139q0 84 -36.5 129t-133.5 45q-88 0 -126.5 -49t-38.5 -121v-24h-166q-2 12 -2 45q0 143 94 221t252 78q162 0 243.5 -78t81.5 -223v-604q0 -35 16.5 -53.5t41.5 -18.5h65v-117q-45 -25 -110 -24q-66 0 -110 35.5t-60 97.5h-11 q-41 -68 -109.5 -105t-152.5 -37q-110 0 -196 65.5t-86 238.5zM223 1286v195h178v-195h-178zM246 289q0 -88 35.5 -126t109.5 -38q55 0 106.5 30.5t84 91t32.5 144.5v98q-184 0 -276 -41.5t-92 -158.5zM530 1286v195h181v-195h-181z" />
<glyph unicode="&#xe5;" d="M70 279q0 207 140 283.5t404 76.5v139q0 84 -36.5 129t-133.5 45q-88 0 -126.5 -49t-38.5 -121v-24h-166q-2 12 -2 45q0 143 94 221t252 78q162 0 243.5 -78t81.5 -223v-604q0 -35 16.5 -53.5t41.5 -18.5h65v-117q-45 -25 -110 -24q-66 0 -110 35.5t-60 97.5h-11 q-41 -68 -109.5 -105t-152.5 -37q-110 0 -196 65.5t-86 238.5zM246 289q0 -88 35.5 -126t109.5 -38q55 0 106.5 30.5t84 91t32.5 144.5v98q-184 0 -276 -41.5t-92 -158.5zM270 1350q0 82 57.5 138t139.5 56t139.5 -57t57.5 -137q0 -82 -57.5 -140.5t-139.5 -58.5 q-80 0 -138.5 57.5t-58.5 141.5zM362 1350q0 -43 31 -75t74 -32q41 0 72.5 32t31.5 75t-30.5 72.5t-73.5 29.5t-74 -29.5t-31 -72.5z" />
<glyph unicode="&#xe6;" horiz-adv-x="1492" d="M82 279q0 207 140 283.5t405 76.5v139q0 84 -37 129t-133 45q-88 0 -127 -49t-39 -121v-24h-166q-2 12 -2 45q0 143 94 221t252 78q199 0 276 -123q98 123 287 123q180 0 267 -120t87 -386v-107h-583q2 -188 58.5 -276t176.5 -88q82 0 132.5 65.5t50.5 176.5h165 q0 -180 -97 -286t-255 -106q-231 0 -327 164q-57 -78 -138.5 -121t-173.5 -43q-129 0 -221 64.5t-92 239.5zM258 289q0 -88 36 -126t109 -38q89 0 156.5 65.5t67.5 184.5v114q-184 0 -276.5 -41.5t-92.5 -158.5zM805 639h405q0 154 -45 233.5t-133 79.5q-109 0 -163 -76.5 t-64 -236.5z" />
<glyph unicode="&#xe7;" horiz-adv-x="839" d="M74 539q0 291 90 427t278 136q172 0 251 -106.5t79 -317.5h-174q0 145 -34 209.5t-122 64.5q-98 0 -145 -93t-47 -281v-78q0 -188 46 -281.5t146 -93.5q88 0 126 67.5t38 206.5h166q0 -180 -79 -299.5t-240 -124.5l-7 -49q166 -12 166 -133q0 -92 -65.5 -129t-147.5 -37 q-94 1 -172 17v100h156q37 0 55.5 11.5t18.5 37.5q0 25 -15.5 37t-54.5 12h-68l23 146q-137 33 -202.5 167t-65.5 384z" />
<glyph unicode="&#xe8;" d="M86 539q0 289 100.5 426t305.5 137q180 0 267 -120t87 -386v-107h-584q2 -188 58.5 -276t177.5 -88q82 0 132 65.5t50 176.5h166q0 -180 -97.5 -286t-254.5 -106q-205 0 -306.5 134.5t-101.5 429.5zM250 1475l2 6h184l176 -271h-141zM264 639h406q0 154 -45 233.5 t-133 79.5q-109 0 -163.5 -76.5t-64.5 -236.5z" />
<glyph unicode="&#xe9;" d="M86 539q0 289 100.5 426t305.5 137q180 0 267 -120t87 -386v-107h-584q2 -188 58.5 -276t177.5 -88q82 0 132 65.5t50 176.5h166q0 -180 -97.5 -286t-254.5 -106q-205 0 -306.5 134.5t-101.5 429.5zM264 639h406q0 154 -45 233.5t-133 79.5q-109 0 -163.5 -76.5 t-64.5 -236.5zM369 1210l176 271h184l2 -6l-219 -265h-143z" />
<glyph unicode="&#xea;" d="M86 539q0 289 100.5 426t305.5 137q180 0 267 -120t87 -386v-107h-584q2 -188 58.5 -276t177.5 -88q82 0 132 65.5t50 176.5h166q0 -180 -97.5 -286t-254.5 -106q-205 0 -306.5 134.5t-101.5 429.5zM213 1202l174 277h162l174 -277h-164l-90 162l-92 -162h-164zM264 639 h406q0 154 -45 233.5t-133 79.5q-109 0 -163.5 -76.5t-64.5 -236.5z" />
<glyph unicode="&#xeb;" d="M86 539q0 289 100.5 426t305.5 137q180 0 267 -120t87 -386v-107h-584q2 -188 58.5 -276t177.5 -88q82 0 132 65.5t50 176.5h166q0 -180 -97.5 -286t-254.5 -106q-205 0 -306.5 134.5t-101.5 429.5zM223 1286v195h178v-195h-178zM264 639h406q0 154 -45 233.5t-133 79.5 q-109 0 -163.5 -76.5t-64.5 -236.5zM530 1286v195h181v-195h-181z" />
<glyph unicode="&#xec;" horiz-adv-x="466" d="M-6 1475l2 6h184l176 -271h-141zM150 0v1077h167v-1077h-167z" />
<glyph unicode="&#xed;" horiz-adv-x="466" d="M113 1210l176 271h182l2 -6l-219 -265h-141zM150 0v1077h167v-1077h-167z" />
<glyph unicode="&#xee;" horiz-adv-x="466" d="M-23 1202l179 277h159l174 -277h-163l-90 162l-93 -162h-166zM150 0v1077h167v-1077h-167z" />
<glyph unicode="&#xef;" horiz-adv-x="466" d="M-8 1286v195h178v-195h-178zM150 0v1077h167v-1077h-167zM299 1286v195h178v-195h-178z" />
<glyph unicode="&#xf0;" d="M82 539q0 287 98.5 425t263.5 138q49 0 103 -25v2q-20 39 -51 83t-64 87l-242 -20v123l146 12l-29 33q-23 27 -67 76l4 8h180q78 -84 92 -101l240 23v-123l-146 -14q117 -158 179.5 -336t62.5 -391q0 -287 -97.5 -425.5t-287.5 -138.5q-191 0 -288 138.5t-97 425.5z M258 500q0 -375 209 -375t209 375v78q0 186 -53.5 280t-155.5 94q-209 0 -209 -374v-78z" />
<glyph unicode="&#xf1;" d="M123 0v1077h127l22 -125h13q84 150 260 150q129 0 197.5 -77t68.5 -249v-776h-168v764q0 104 -39 146t-112 42q-84 0 -142.5 -79.5t-58.5 -215.5v-657h-168zM168 1268q0 82 45 147.5t129 65.5q31 0 57.5 -8.5t65.5 -24.5q70 -31 113 -31q61 0 69 64h119q0 -82 -45 -147.5 t-129 -65.5q-31 0 -57.5 8t-65.5 24q-70 31 -113 31q-61 0 -69 -63h-119z" />
<glyph unicode="&#xf2;" d="M82 539q0 287 97 425t288 138q190 0 287.5 -138.5t97.5 -424.5q0 -287 -97.5 -425.5t-287.5 -138.5q-191 0 -288 138.5t-97 425.5zM225 1475l2 6h187l176 -271h-141zM258 500q0 -375 209 -375t209 375v78q0 375 -209 374q-209 0 -209 -374v-78z" />
<glyph unicode="&#xf3;" d="M82 539q0 287 97 425t288 138q190 0 287.5 -138.5t97.5 -424.5q0 -287 -97.5 -425.5t-287.5 -138.5q-191 0 -288 138.5t-97 425.5zM258 500q0 -375 209 -375t209 375v78q0 375 -209 374q-209 0 -209 -374v-78zM344 1210l176 271h185l2 -6l-220 -265h-143z" />
<glyph unicode="&#xf4;" d="M82 539q0 287 97 425t288 138q190 0 287.5 -138.5t97.5 -424.5q0 -287 -97.5 -425.5t-287.5 -138.5q-191 0 -288 138.5t-97 425.5zM213 1202l174 277h162l174 -277h-164l-90 162l-92 -162h-164zM258 500q0 -375 209 -375t209 375v78q0 375 -209 374q-209 0 -209 -374v-78 z" />
<glyph unicode="&#xf5;" d="M82 539q0 287 97 425t288 138q190 0 287.5 -138.5t97.5 -424.5q0 -287 -97.5 -425.5t-287.5 -138.5q-191 0 -288 138.5t-97 425.5zM168 1268q0 82 45 147.5t129 65.5q31 0 57.5 -8.5t65.5 -24.5q70 -31 113 -31q61 0 69 64h119q0 -82 -45 -147.5t-129 -65.5 q-31 0 -57.5 8t-65.5 24q-70 31 -113 31q-61 0 -69 -63h-119zM258 500q0 -375 209 -375t209 375v78q0 375 -209 374q-209 0 -209 -374v-78z" />
<glyph unicode="&#xf6;" d="M82 539q0 287 97 425t288 138q190 0 287.5 -138.5t97.5 -424.5q0 -287 -97.5 -425.5t-287.5 -138.5q-191 0 -288 138.5t-97 425.5zM223 1286v195h178v-195h-178zM258 500q0 -375 209 -375t209 375v78q0 375 -209 374q-209 0 -209 -374v-78zM530 1286v195h181v-195h-181z " />
<glyph unicode="&#xf7;" horiz-adv-x="1124" d="M88 436v172h946v-172h-946zM475 104v185h172v-185h-172zM475 756v186h172v-186h-172z" />
<glyph unicode="&#xf8;" horiz-adv-x="1026" d="M127 -66l96 179q-96 139 -96 426t97.5 425t287.5 138q131 0 215 -64l57 105h113l-98 -178q98 -137 98 -426q0 -287 -97.5 -425.5t-287.5 -138.5q-133 0 -217 64l-55 -105h-113zM303 500q0 -123 21 -203l323 594q-51 61 -135 61q-209 0 -209 -374v-78zM377 186 q49 -61 135 -61q209 0 209 375v78q0 117 -23 200z" />
<glyph unicode="&#xf9;" d="M123 301v776h168v-764q0 -104 39 -146t112 -42q84 0 142.5 80t58.5 215v657h168v-1077h-127l-22 125h-13q-84 -150 -260 -150q-129 0 -197.5 77t-68.5 249zM225 1475l2 6h187l176 -271h-141z" />
<glyph unicode="&#xfa;" d="M123 301v776h168v-764q0 -104 39 -146t112 -42q84 0 142.5 80t58.5 215v657h168v-1077h-127l-22 125h-13q-84 -150 -260 -150q-129 0 -197.5 77t-68.5 249zM344 1210l176 271h185l2 -6l-220 -265h-143z" />
<glyph unicode="&#xfb;" d="M123 301v776h168v-764q0 -104 39 -146t112 -42q84 0 142.5 80t58.5 215v657h168v-1077h-127l-22 125h-13q-84 -150 -260 -150q-129 0 -197.5 77t-68.5 249zM213 1202l174 277h162l174 -277h-164l-90 162l-92 -162h-164z" />
<glyph unicode="&#xfc;" d="M123 301v776h168v-764q0 -104 39 -146t112 -42q84 0 142.5 80t58.5 215v657h168v-1077h-127l-22 125h-13q-84 -150 -260 -150q-129 0 -197.5 77t-68.5 249zM223 1286v195h178v-195h-178zM530 1286v195h181v-195h-181z" />
<glyph unicode="&#xfd;" horiz-adv-x="839" d="M20 1077h185l182 -643l55 -192h9l47 196l153 639h170l-274 -1022q-53 -201 -135 -314.5t-213 -113.5q-74 1 -121 17v116h59q162 0 213 240zM299 1210l174 271h184l2 -6l-219 -265h-141z" />
<glyph unicode="&#xfe;" d="M123 -354v1835h168v-498l8 -2q33 55 91.5 88t127.5 33q160 0 247 -139.5t87 -425.5q0 -279 -89 -420.5t-233 -141.5q-78 0 -140 32t-89 87h-10v-448h-168zM291 500q0 -375 192 -375q99 0 146 88t47 287v78q0 199 -47 286.5t-146 87.5q-193 0 -192 -374v-78z" />
<glyph unicode="&#xff;" horiz-adv-x="839" d="M20 1077h185l182 -643l55 -192h9l47 196l153 639h170l-274 -1022q-53 -201 -135 -314.5t-213 -113.5q-74 1 -121 17v116h59q162 0 213 240zM176 1286v195h178v-195h-178zM483 1286v195h181v-195h-181z" />
<glyph unicode="&#x152;" horiz-adv-x="1679" d="M100 702q0 360 120 544t339 184q197 0 311 -164v139h723v-164h-542v-440h450v-164h-450v-473h555v-164h-736v139q-113 -164 -311 -164q-219 0 -339 183.5t-120 543.5zM289 651q0 -252 76.5 -381t214.5 -129q137 0 213.5 129t76.5 381v103q0 252 -76.5 381t-213.5 129 t-214 -129t-77 -381v-103z" />
<glyph unicode="&#x153;" horiz-adv-x="1585" d="M109 539q0 287 97 425t288 138q205 0 299 -158q100 158 319 158q180 0 267 -120t87 -386v-107h-583q2 -188 58 -276t177 -88q82 0 132 65.5t50 176.5h166q0 -180 -97 -286t-255 -106q-225 0 -321 156q-92 -156 -299 -156q-191 0 -288 138.5t-97 425.5zM285 500 q0 -375 209 -375q208 0 208 375v78q0 375 -208 374q-209 0 -209 -374v-78zM885 639h405q0 154 -45 233.5t-133 79.5q-109 0 -163 -76.5t-64 -236.5z" />
<glyph unicode="&#x178;" horiz-adv-x="1120" d="M16 1405h199l356 -651h9l350 651h174l-453 -823v-582h-180v582zM317 1614v194h179v-194h-179zM625 1614v194h178v-194h-178z" />
<glyph unicode="&#x2c6;" horiz-adv-x="559" d="M20 1202l177 277h159l174 -277h-163l-91 162l-92 -162h-164z" />
<glyph unicode="&#x2dc;" horiz-adv-x="559" d="M-20 1268q0 82 45 147.5t129 65.5q31 0 57.5 -8.5t64.5 -24.5q70 -31 113 -31q61 0 70 64h119q0 -82 -45.5 -147.5t-129.5 -65.5q-31 0 -57.5 8t-64.5 24q-70 31 -113 31q-61 0 -70 -63h-118z" />
<glyph unicode="&#x2000;" horiz-adv-x="937" />
<glyph unicode="&#x2001;" horiz-adv-x="1874" />
<glyph unicode="&#x2002;" horiz-adv-x="937" />
<glyph unicode="&#x2003;" horiz-adv-x="1874" />
<glyph unicode="&#x2004;" horiz-adv-x="624" />
<glyph unicode="&#x2005;" horiz-adv-x="468" />
<glyph unicode="&#x2006;" horiz-adv-x="312" />
<glyph unicode="&#x2007;" horiz-adv-x="312" />
<glyph unicode="&#x2008;" horiz-adv-x="234" />
<glyph unicode="&#x2009;" horiz-adv-x="374" />
<glyph unicode="&#x200a;" horiz-adv-x="104" />
<glyph unicode="&#x2010;" horiz-adv-x="559" d="M20 453v200h517v-200h-517z" />
<glyph unicode="&#x2011;" horiz-adv-x="559" d="M20 453v200h517v-200h-517z" />
<glyph unicode="&#x2012;" horiz-adv-x="559" d="M20 453v200h517v-200h-517z" />
<glyph unicode="&#x2013;" d="M0 477v154h932v-154h-932z" />
<glyph unicode="&#x2014;" horiz-adv-x="1679" d="M0 477v154h1679v-154h-1679z" />
<glyph unicode="&#x2018;" horiz-adv-x="372" d="M84 930v203l98 272h107l-82 -254h82v-221h-205z" />
<glyph unicode="&#x2019;" horiz-adv-x="372" d="M84 930l82 254h-82v221h205v-203l-99 -272h-106z" />
<glyph unicode="&#x201a;" horiz-adv-x="372" d="M76 0v221h205v-203l-99 -272h-106l82 254h-82z" />
<glyph unicode="&#x201c;" horiz-adv-x="559" d="M45 930v203l98 272h107l-82 -254h82v-221h-205zM305 930v203l98 272h107l-82 -254h82v-221h-205z" />
<glyph unicode="&#x201d;" horiz-adv-x="559" d="M49 930l82 254h-82v221h205v-203l-98 -272h-107zM309 930l82 254h-82v221h205v-203l-98 -272h-107z" />
<glyph unicode="&#x201e;" horiz-adv-x="559" d="M49 0v221h205v-203l-98 -272h-107l82 254h-82zM309 0v221h205v-203l-98 -272h-107l82 254h-82z" />
<glyph unicode="&#x2022;" horiz-adv-x="587" d="M70 705q0 94 65.5 160.5t157.5 66.5q94 0 159.5 -66.5t65.5 -160.5t-65.5 -162t-159.5 -68q-92 0 -157.5 67.5t-65.5 162.5z" />
<glyph unicode="&#x2026;" horiz-adv-x="1679" d="M178 0v221h205v-221h-205zM737 0v221h205v-221h-205zM1294 0v221h205v-221h-205z" />
<glyph unicode="&#x202f;" horiz-adv-x="374" />
<glyph unicode="&#x2039;" horiz-adv-x="559" d="M59 668l289 409h146l-232 -409l232 -410h-146z" />
<glyph unicode="&#x203a;" horiz-adv-x="559" d="M66 258l231 410l-231 409h145l289 -409l-289 -410h-145z" />
<glyph unicode="&#x205f;" horiz-adv-x="468" />
<glyph unicode="&#x20ac;" d="M39 498v133h115q-2 23 -2 71q0 47 2 72h-115v133h129q43 252 190.5 387.5t378.5 135.5q74 0 137 -21v-145q-59 16 -112 16q-154 0 -266.5 -94t-153.5 -279h414v-133h-432q-2 -25 -2 -72q0 -49 2 -71h432v-133h-414q41 -184 153.5 -278.5t266.5 -94.5q53 0 112 16v-145 q-76 -20 -137 -21q-231 0 -378.5 135.5t-190.5 387.5h-129z" />
<glyph unicode="&#x2122;" horiz-adv-x="1679" d="M164 1305v100h555v-100h-223v-725h-107v725h-225zM807 578v827h162l172 -662h8l172 662h160v-827h-107v688h-8l-180 -688h-96l-179 688h-8v-688h-96z" />
<glyph unicode="&#x25fc;" horiz-adv-x="1075" d="M0 0v1075h1075v-1075h-1075z" />
<glyph unicode="&#xfb01;" horiz-adv-x="839" d="M18 928v149h95v172q0 106 50 177t163 71q72 0 141 -24v-117h-90q-96 0 -96 -99v-180h186v-149h-186v-928h-168v928h-95zM569 0v1077h168v-1077h-168zM569 1280v201h168v-201h-168z" />
<glyph unicode="&#xfb02;" horiz-adv-x="839" d="M18 928v149h95v172q0 106 50 177t163 71q72 0 141 -24v-117h-90q-96 0 -96 -99v-180h186v-149h-186v-928h-168v928h-95zM569 0v1481h168v-1481h-168z" />
</font>
</defs>
</svg>
