<?xml version="1.0" encoding="UTF-8" standalone="no"?>
<!DOCTYPE svg PUBLIC "-//W3C//DTD SVG 1.1//EN" "http://www.w3.org/Graphics/SVG/1.1/DTD/svg11.dtd">
<svg width="100%" height="100%" viewBox="0 0 6250 6250" version="1.1" xmlns="http://www.w3.org/2000/svg" xmlns:xlink="http://www.w3.org/1999/xlink" xml:space="preserve" xmlns:serif="http://www.serif.com/" style="fill-rule:evenodd;clip-rule:evenodd;stroke-linejoin:round;stroke-miterlimit:2;">
    <g id="Page-1" serif:id="Page 1" transform="matrix(4.166667,0,0,4.166667,0,0)">
        <rect x="0" y="0" width="1500" height="1500" style="fill:none;"/>
        <g id="Layer-1" serif:id="Layer 1">
            <g transform="matrix(1,0,0,1,720.054,203.2946)">
                <path d="M0,109.747C0,109.747 -23.88,24.806 69.021,14.53C160.257,4.327 164.989,16.861 164.989,16.861C164.989,16.861 189.275,161.979 0,109.747M-108.821,107.706C-289.585,157.551 -266.299,19.148 -266.299,19.148C-266.299,19.148 -258.266,9.957 -175.077,19.148C-90.932,28.627 -108.821,107.706 -108.821,107.706M294.535,-177.668C294.535,-177.668 205.065,-144.496 157.377,-123.482C157.377,-123.482 96.2,-154.685 -52.276,-154.685C-200.925,-154.685 -262.188,-123.482 -262.188,-123.482C-309.543,-144.496 -399.144,-177.668 -399.144,-177.668C-414.601,-76.517 -339.328,-29.38 -339.328,-29.38C-351.558,-1.563 -371.067,51.682 -361.66,123.467C-347.462,236.442 -233.142,245.805 -147.376,227.28C-61.567,209.074 -52.276,287.415 -52.276,287.415C-52.276,287.415 -43.056,209.074 42.637,227.28C128.46,245.805 242.621,236.442 256.949,123.467C266.111,51.682 246.963,-1.563 234.603,-29.38C234.603,-29.38 309.978,-76.517 294.535,-177.668" style="fill:rgb(35,31,32);fill-rule:nonzero;"/>
            </g>
            <g transform="matrix(1,0,0,1,1383.7313,692.1697)">
                <path d="M0,555.349C-92.293,299.239 -113.944,326.129 -113.944,326.129C-501.38,374.338 -621.041,100.485 -621.041,100.485L-601.256,64.462C-386.22,259.381 -139.981,209.87 -139.981,209.87C-241.55,-166.234 -355.263,-170.272 -396.626,-197.973C-445.356,-106.823 -606.814,-141.196 -636.28,-144.206C-713.912,-151.327 -715.953,-73.478 -715.953,-66.444C-715.953,-73.478 -718.037,-151.327 -795.596,-144.206C-770.964,-146.334 -998.577,-107.127 -1028.029,-206.511L-1028.637,-233.185C-1028.637,-233.185 -1126.777,-58.224 -981.354,142.514C-860.159,309.761 -796.696,398.652 -778.49,534.682C-759.965,670.827 -852.243,645.384 -933.102,650.117C-1013.614,654.56 -1004.554,751.455 -1004.554,751.455C-990.747,737.764 -937.574,742.395 -937.574,742.395C-787.448,788.534 -757.577,744.58 -727.719,684.62C-697.63,624.688 -618.971,604.281 -598.564,553.323C-589.287,530.036 -651.911,503.681 -667.368,484.519C-676.515,473.1 -669.409,456.832 -644.284,465.878C-618.971,475.257 -603.094,451.666 -609.969,435.384C-616.93,419.32 -635.354,396.38 -649.248,384.816C-663.041,373.296 -674.561,336.333 -635.354,352.499C-575.104,377.334 -574.25,336.333 -574.25,301.627C-574.25,301.627 -530.412,331.687 -502.798,486.184C-475.199,640.854 -482.001,638.495 -585.799,650.117C-689.497,661.565 -657.454,765.363 -657.454,765.363C-652.852,746.838 -631.967,733.147 -611.141,735.288C-590.445,737.764 -576.754,735.288 -509.6,744.58C-442.693,753.727 -382.949,728.588 -306.953,726.142C-230.725,723.754 -189.318,744.58 -186.858,733.147C-173.456,665.993 -251.435,650.117 -308.979,645.384C-366.87,640.854 -394.368,599.375 -359.88,576.19C-325.246,553.323 -325.246,546.115 -336.839,534.682C-359.88,511.714 -386.336,492.045 -380.677,479.179C-369.142,453.953 -352.976,483.911 -339.299,460.943C-323.017,434.27 -373.687,391.72 -373.687,391.72C-332.164,387.118 -293.044,377.754 -274.621,433.156C-256.081,488.528 -253.925,502.552 -235.443,541.701C-216.715,580.821 -203.009,580.821 -152.253,571.558C-63.434,555.349 0,555.349 0,555.349" style="fill:rgb(35,31,32);fill-rule:nonzero;"/>
            </g>
        </g>
    </g>
</svg>
